<svg width="17" height="14" viewBox="0 0 17 14" fill="none" xmlns="http://www.w3.org/2000/svg">
<path fill-rule="evenodd" clip-rule="evenodd" d="M1.58346 1.5C1.53743 1.5 1.50012 1.53731 1.50012 1.58333V11.5833C1.50012 11.6294 1.53743 11.6667 1.58346 11.6667H14.9168C14.9628 11.6667 15.0001 11.6294 15.0001 11.5833V1.58333C15.0001 1.53731 14.9628 1.5 14.9168 1.5H1.58346ZM0.00012207 1.58333C0.00012207 0.708883 0.709004 0 1.58346 0H14.9168C15.7912 0 16.5001 0.708883 16.5001 1.58333V11.5833C16.5001 12.4578 15.7912 13.1667 14.9168 13.1667H1.58346C0.709004 13.1667 0.00012207 12.4578 0.00012207 11.5833V1.58333Z" fill="#9C9C9C"/>
<path fill-rule="evenodd" clip-rule="evenodd" d="M0.110146 1.60893C0.326138 1.25549 0.787754 1.14406 1.1412 1.36005L8.25011 5.70439L15.359 1.36005C15.7125 1.14406 16.1741 1.25549 16.3901 1.60893C16.6061 1.96237 16.4946 2.42399 16.1412 2.63998L8.25011 7.46231L0.35902 2.63998C0.00557914 2.42399 -0.105845 1.96237 0.110146 1.60893Z" fill="#9C9C9C"/>
</svg>
