<svg width="15" height="19" viewBox="0 0 15 19" fill="none" xmlns="http://www.w3.org/2000/svg">
<path d="M7.5 0C4.91531 0 2.8125 2.10281 2.8125 4.6875V7.5H1.875C0.840937 7.5 0 8.34094 0 9.375V16.875C0 17.9091 0.840937 18.75 1.875 18.75H13.125C14.1591 18.75 15 17.9091 15 16.875V9.375C15 8.34094 14.1591 7.5 13.125 7.5H12.1875V4.6875C12.1875 2.10281 10.0847 0 7.5 0ZM13.125 9.375L13.1269 16.875H1.875V9.375H13.125ZM4.6875 7.5V4.6875C4.6875 3.13687 5.94938 1.875 7.5 1.875C9.05062 1.875 10.3125 3.13687 10.3125 4.6875V7.5H4.6875Z" fill="#9C9C9C"/>
</svg>
