<svg width="81" height="18" viewBox="0 0 81 18" fill="none" xmlns="http://www.w3.org/2000/svg">
<path d="M12.182 5.28799C12.182 6.13599 11.982 6.93599 11.582 7.68799C11.182 8.43999 10.542 9.05599 9.66198 9.53599C8.78198 9.99999 7.65398 10.232 6.27798 10.232H3.25397V17H0.517975V0.319986H6.27798C7.55798 0.319986 8.63797 0.543986 9.51797 0.991986C10.414 1.42399 11.078 2.01599 11.51 2.76799C11.958 3.51999 12.182 4.35999 12.182 5.28799ZM6.27798 7.99999C7.31798 7.99999 8.09398 7.76799 8.60598 7.30399C9.11798 6.82399 9.37398 6.15199 9.37398 5.28799C9.37398 3.46399 8.34198 2.55199 6.27798 2.55199H3.25397V7.99999H6.27798Z" fill="white"/>
<path d="M16.2541 0.319986V17H13.5181V0.319986H16.2541Z" fill="white"/>
<path d="M16.728 8.62399C16.728 6.99199 17.104 5.52799 17.856 4.23199C18.624 2.93599 19.656 1.92799 20.952 1.20799C22.264 0.471986 23.696 0.103986 25.248 0.103986C27.024 0.103986 28.6 0.543986 29.976 1.42399C31.368 2.28799 32.376 3.51999 33 5.11999H29.712C29.28 4.23999 28.68 3.58399 27.912 3.15199C27.144 2.71999 26.256 2.50399 25.248 2.50399C24.144 2.50399 23.16 2.75199 22.296 3.24799C21.432 3.74399 20.752 4.45599 20.256 5.38399C19.776 6.31199 19.536 7.39199 19.536 8.62399C19.536 9.85599 19.776 10.936 20.256 11.864C20.752 12.792 21.432 13.512 22.296 14.024C23.16 14.52 24.144 14.768 25.248 14.768C26.256 14.768 27.144 14.552 27.912 14.12C28.68 13.688 29.28 13.032 29.712 12.152H33C32.376 13.752 31.368 14.984 29.976 15.848C28.6 16.712 27.024 17.144 25.248 17.144C23.68 17.144 22.248 16.784 20.952 16.064C19.656 15.328 18.624 14.312 17.856 13.016C17.104 11.72 16.728 10.256 16.728 8.62399Z" fill="white"/>
<path d="M41.651 8.31199C42.643 8.53599 43.427 9.03199 44.003 9.79999C44.595 10.552 44.891 11.416 44.891 12.392C44.891 13.832 44.395 14.96 43.403 15.776C42.411 16.592 41.019 17 39.227 17H34.0001V0.0799866H38.963C40.691 0.0799866 42.043 0.463987 43.019 1.23199C44.011 1.99999 44.507 3.07999 44.507 4.47199C44.507 5.46399 44.243 6.29599 43.715 6.96799C43.203 7.62399 42.515 8.07199 41.651 8.31199ZM34.0001 6.79999H37.931C39.115 6.79999 39.707 6.31199 39.707 5.33599C39.707 4.32799 39.115 3.82399 37.931 3.82399H34.0001V6.79999ZM38.291 13.208C39.475 13.208 40.067 12.712 40.067 11.72C40.067 11.208 39.907 10.816 39.587 10.544C39.283 10.272 38.843 10.136 38.267 10.136H34.0001V13.208H38.291Z" fill="white"/>
<path d="M62.6246 17H57.9206L51.6566 7.54399V17H46.9526V0.0799866H51.6566L57.9206 9.65599V0.0799866H62.6246V17Z" fill="white"/>
<path d="M75.3122 17L70.0082 9.58399V17H65.3042V0.0799866H70.0082V7.37599L75.2642 0.0799866H80.6882L74.4722 8.28799L81.0002 17H75.3122Z" fill="white"/>
</svg>
