<svg width="14" height="15" viewBox="0 0 14 15" fill="none" xmlns="http://www.w3.org/2000/svg">
<path d="M9.87778 9.87956C10.3194 9.64234 10.8249 9.5073 11.3632 9.5073H11.365C11.4198 9.5073 11.4453 9.44161 11.4052 9.40511C10.8453 8.9027 10.2058 8.49691 9.51282 8.20438C9.50552 8.20073 9.49822 8.1989 9.49092 8.19525C10.6241 7.37226 11.3614 6.03467 11.3614 4.52555C11.3614 2.02555 9.33946 0 6.84494 0C4.35041 0 2.33034 2.02555 2.33034 4.52555C2.33034 6.03467 3.06756 7.37226 4.2026 8.19525C4.1953 8.1989 4.188 8.20073 4.1807 8.20438C3.36501 8.54927 2.63326 9.0438 2.0037 9.67518C1.37777 10.3 0.87945 11.0406 0.536542 11.8558C0.199157 12.6541 0.0170739 13.5094 4.56314e-05 14.3759C-0.000441422 14.3954 0.00297469 14.4148 0.0100928 14.4329C0.0172108 14.451 0.0278868 14.4676 0.0414916 14.4815C0.0550964 14.4955 0.0713548 14.5065 0.0893087 14.5141C0.107263 14.5217 0.126549 14.5256 0.146031 14.5255H1.2391C1.31756 14.5255 1.38326 14.4617 1.38508 14.3832C1.42158 12.9745 1.98545 11.6551 2.98362 10.6551C4.01464 9.62044 5.38691 9.05109 6.84676 9.05109C7.88143 9.05109 8.87413 9.33759 9.72997 9.87409C9.75196 9.8879 9.77719 9.89568 9.80314 9.89664C9.82909 9.8976 9.85483 9.89171 9.87778 9.87956ZM6.84676 7.66423C6.01099 7.66423 5.2245 7.33759 4.63143 6.74453C4.33963 6.45348 4.10831 6.10758 3.95077 5.72675C3.79324 5.34592 3.71262 4.93768 3.71355 4.52555C3.71355 3.68796 4.04019 2.89963 4.63143 2.30657C5.22267 1.7135 6.00917 1.38686 6.84676 1.38686C7.68435 1.38686 8.46902 1.7135 9.06209 2.30657C9.35389 2.59761 9.58521 2.94351 9.74275 3.32435C9.90028 3.70518 9.9809 4.11342 9.97997 4.52555C9.97997 5.36314 9.65333 6.15146 9.06209 6.74453C8.46902 7.33759 7.68253 7.66423 6.84676 7.66423ZM13.5584 12.0073H12.0256V10.4745C12.0256 10.3942 11.9599 10.3285 11.8796 10.3285H10.8577C10.7774 10.3285 10.7117 10.3942 10.7117 10.4745V12.0073H9.17888C9.09859 12.0073 9.03289 12.073 9.03289 12.1533V13.1752C9.03289 13.2555 9.09859 13.3212 9.17888 13.3212H10.7117V14.854C10.7117 14.9343 10.7774 15 10.8577 15H11.8796C11.9599 15 12.0256 14.9343 12.0256 14.854V13.3212H13.5584C13.6387 13.3212 13.7044 13.2555 13.7044 13.1752V12.1533C13.7044 12.073 13.6387 12.0073 13.5584 12.0073Z" fill="#9C9C9C"/>
</svg>
